<?xml version="1.0" encoding="UTF-8"?> <!-- Generator: Adobe Illustrator 25.4.1, SVG Export Plug-In . SVG Version: 6.00 Build 0) --> <svg xmlns="http://www.w3.org/2000/svg" xmlns:xlink="http://www.w3.org/1999/xlink" version="1.1" id="Layer_1" x="0px" y="0px" viewBox="0 0 985.7 144.8" style="enable-background:new 0 0 985.7 144.8;" xml:space="preserve"> <style type="text/css"> .st0{fill:#FFFFFF;} </style> <g> <path class="st0" d="M99.4,79.5c-3.8-5-9-8.3-15.6-10c5.8-2.2,10.3-5.8,13.6-10.6s4.9-10.4,4.9-16.7c0-11.6-4-20.4-12.1-26.4 s-20-9-35.6-9H9.2v21.5h26.6h8h10.6c7.3,0,12.7,1.3,16.1,3.8c3.4,2.6,5.1,6.8,5.1,12.6c0,10.5-6.7,15.8-20.1,16H43.8h-8H9.2v74.9 h50.1c14.6-0.1,25.9-3.4,33.8-9.7c7.9-6.4,11.9-15.8,11.9-28.2C105.1,90.6,103.2,84.5,99.4,79.5z M73.2,110 c-3.5,3-8.4,4.5-14.7,4.5H35.8V79.6h24.4c12.2,0.2,18.3,6.2,18.3,18C78.5,102.9,76.8,107,73.2,110z"></path> <path class="st0" d="M151.6,114.4H208v21.4h-83V6.8h26.6V114.4z"></path> <path class="st0" d="M318.7,6.8v84.9c0,14.1-4.4,25.3-13.2,33.5c-8.8,8.2-20.9,12.3-36.2,12.3c-15.1,0-27-4-35.9-12 s-13.4-18.9-13.6-32.9V6.8h26.6V92c0,8.4,2,14.6,6.1,18.5c4,3.9,9.6,5.8,16.8,5.8c14.9,0,22.5-7.8,22.8-23.6V6.8H318.7z"></path> <path class="st0" d="M418.1,79.9h-51v34.5h59.9v21.3h-86.4V6.8h86.3v21.5h-59.7v30.7h51L418.1,79.9L418.1,79.9z"></path> <path class="st0" d="M487.7,135.8V6.8h39.7c11.3,0,21.5,2.6,30.4,7.7c9,5.1,15.9,12.4,21,21.8s7.5,20.1,7.5,32.1v5.9 c0,12-2.5,22.7-7.4,32C574,115.6,567,122.9,558,128s-19.1,7.7-30.4,7.8L487.7,135.8L487.7,135.8z M514.3,28.4v86.1h12.8 c10.4,0,18.3-3.4,23.8-10.2c5.5-6.8,8.3-16.5,8.4-29.1v-6.8c0-13.1-2.7-23-8.2-29.8c-5.4-6.8-13.4-10.1-23.8-10.1 C527.4,28.4,514.3,28.4,514.3,28.4z"></path> <path class="st0" d="M711.5,74.2c0,12.7-2.2,23.8-6.7,33.4c-4.5,9.6-10.9,17-19.3,22.1c-8.4,5.2-17.9,7.8-28.7,7.8 c-10.7,0-20.2-2.6-28.6-7.7c-8.4-5.1-14.9-12.5-19.5-22c-4.6-9.5-6.9-20.5-7-32.9v-6.4c0-12.7,2.3-23.9,6.9-33.5 c4.6-9.6,11-17.1,19.4-22.2c8.3-5.2,17.9-7.8,28.7-7.8s20.3,2.6,28.7,7.8c8.3,5.2,14.8,12.6,19.4,22.2s6.9,20.8,6.9,33.4 L711.5,74.2L711.5,74.2z M684.6,68.4c0-13.5-2.4-23.8-7.3-30.8S665.6,27,656.6,27c-8.9,0-15.8,3.5-20.6,10.4s-7.3,17.1-7.3,30.5 v6.3c0,13.2,2.4,23.4,7.3,30.7c4.8,7.3,11.8,10.9,20.9,10.9c8.9,0,15.8-3.5,20.5-10.5s7.2-17.2,7.3-30.6L684.6,68.4L684.6,68.4z"></path> <path class="st0" d="M765.5,6.8l33.1,93.5l33-93.5h34.9v129h-26.7v-35.2l2.7-60.8l-34.8,96.1h-18.2l-34.7-96l2.7,60.8v35.2h-26.6 V6.8H765.5z"></path> <path class="st0" d="M967.3,79.9h-51v34.5h59.9v21.3h-86.4V6.8H976v21.5h-59.7v30.7h51V79.9z"></path> </g> </svg> 